ply
format ascii 1.0
element vertex 787
property float x
property float y
property float z
end_header
-340.2330 88.0312 641.9990
-340.5610 89.2744 642.6180
-340.8900 90.5201 643.2380
-340.8900 91.6796 643.2380
-341.2190 92.9288 643.8590
-341.5490 94.1804 644.4820
-339.0760 88.0312 641.9990
-339.4030 89.2744 642.6180
-339.7300 90.5201 643.2380
-339.7300 91.6796 643.2380
-340.0580 92.9288 643.8590
-340.0580 94.0894 643.8590
-337.9180 88.0312 641.9990
-338.2440 89.2744 642.6180
-338.5710 90.5201 643.2380
-338.5710 91.6796 643.2380
-338.8980 92.9288 643.8590
-338.8980 94.0894 643.8590
-336.7610 88.0312 641.9990
-337.0860 89.2744 642.6180
-337.4110 90.5201 643.2380
-337.4110 91.6796 643.2380
-337.7370 92.9288 643.8590
-337.7370 94.0894 643.8590
-335.6040 86.8739 641.9990
-336.2520 88.2011 643.2380
-336.2520 89.3606 643.2380
-336.5770 90.6075 643.8590
-336.5770 91.7681 643.8590
-336.5770 92.9288 643.8590
-336.9020 94.1804 644.4820
-334.7690 85.7993 642.6180
-335.4160 87.1257 643.8590
-335.4160 88.2863 643.8590
-335.4160 89.4469 643.8590
-335.7400 90.6952 644.4820
-335.4160 91.7681 643.8590
-335.4160 92.9288 643.8590
-335.7400 94.1804 644.4820
-333.6110 84.6409 642.6180
-333.9330 85.8821 643.2380
-334.2550 87.1257 643.8590
-334.2550 88.2863 643.8590
-334.5790 89.5334 644.4820
-334.5790 90.6952 644.4820
-334.5790 91.8569 644.4820
-334.9030 93.1087 645.1060
-334.9030 94.2715 645.1060
-331.8120 81.0096 641.3810
-331.8120 82.1657 641.3810
-332.1320 83.4021 641.9990
-332.7730 84.7226 643.2380
-333.0950 85.9651 643.8590
-333.4170 87.2100 644.4820
-333.4170 88.3717 644.4820
-333.7400 89.6201 645.1060
-334.3870 90.9591 646.3570
-334.7120 92.2136 646.9850
-335.0370 93.4706 647.6140
-335.3630 94.7300 648.2440
-330.6560 78.6973 641.3810
-330.9750 79.9304 641.9990
-331.2940 81.1658 642.6180
-331.2940 82.3242 642.6180
-331.2940 83.4826 642.6180
-331.9340 84.8045 643.8590
-332.2550 86.0482 644.4820
-332.8990 87.3790 645.7310
-333.2220 88.6288 646.3570
-333.2220 89.7940 646.3570
-333.5460 91.0474 646.9850
-333.8700 92.3032 647.6140
-334.1940 93.5615 648.2440
-334.5200 94.8223 648.8750
-329.5000 78.6973 641.3810
-329.5000 79.8534 641.3810
-329.8180 81.0876 641.9990
-329.8180 82.2449 641.9990
-329.8180 83.4021 641.9990
-331.4140 84.9687 645.1060
-331.4140 86.1315 645.1060
-332.3790 87.5486 646.9850
-332.3790 88.7149 646.9850
-332.3790 89.8811 646.9850
-332.7020 91.1359 647.6140
-332.7020 92.3032 647.6140
-333.0260 93.5615 648.2440
-333.6750 94.9147 649.5070
-328.3440 76.3850 641.3810
-328.3440 77.5412 641.3810
-328.3440 78.6973 641.3810
-328.3440 79.8534 641.3810
-328.3440 81.0096 641.3810
-329.9320 84.8865 644.4820
-330.2510 86.1315 645.1060
-331.2130 87.5486 646.9850
-331.5350 88.8011 647.6140
-331.5350 89.9685 647.6140
-331.5350 91.1359 647.6140
-331.8570 92.3930 648.2440
-332.1810 93.6526 648.8750
-332.5040 94.9147 649.5070
-327.5030 77.6159 641.9990
-328.1350 78.9252 643.2380
-328.4520 84.8045 643.8590
-329.0880 86.1315 645.1060
-330.0470 87.5486 646.9850
-330.3680 88.8011 647.6140
-330.3680 89.9685 647.6140
-330.3680 91.1359 647.6140
-330.6890 92.3930 648.2440
-331.0110 93.6526 648.8750
-331.3340 94.9147 649.5070
-326.9760 85.8821 643.2380
-327.9250 87.2944 645.1060
-328.2430 88.5430 645.7310
-328.8810 89.8811 646.9850
-328.8810 91.0474 646.9850
-329.5200 92.3930 648.2440
-329.8410 93.6526 648.8750
-329.8410 94.8223 648.8750
-326.4470 87.2100 644.4820
-326.4470 88.3717 644.4820
-327.3960 89.7940 646.3570
-327.7140 91.0474 646.9850
-328.0330 92.3032 647.6140
-328.3520 93.5615 648.2440
-328.3520 94.7300 648.2440
-324.3440 86.9577 642.6180
-324.9710 88.2863 643.8590
-325.9150 89.7069 645.7310
-326.5480 91.0474 646.9850
-326.5480 92.2136 646.9850
-326.8650 93.4706 647.6140
-326.2310 94.4544 646.3570
-322.5630 86.7903 641.3810
-323.1850 88.1160 642.6180
-323.8100 89.4469 643.8590
-323.8100 90.6075 643.8590
-323.4970 91.6796 643.2380
-325.0660 93.2893 646.3570
-324.1230 94.1804 644.4820
-321.4070 86.7903 641.3810
-321.7170 88.0312 641.9990
-322.3380 89.3606 643.2380
-322.3380 90.5201 643.2380
-322.0270 91.5912 642.6180
-322.9610 93.0186 644.4820
-322.6490 94.0894 643.8590
-320.2510 86.7903 641.3810
-320.8690 88.1160 642.6180
-320.8690 89.2744 642.6180
-320.8690 90.4328 642.6180
-320.8690 91.5912 642.6180
-321.4890 92.9288 643.8590
-321.1780 93.9985 643.2380
-319.0950 86.7903 641.3810
-319.4020 88.0312 641.9990
-319.7100 89.2744 642.6180
-319.7100 90.4328 642.6180
-319.7100 91.5912 642.6180
-319.7100 92.7495 642.6180
-319.7100 93.9079 642.6180
-318.2450 86.8739 641.9990
-318.5520 88.1160 642.6180
-318.5520 89.2744 642.6180
-318.5520 90.4328 642.6180
-318.2450 91.5029 641.9990
-318.8590 92.8391 643.2380
-318.5520 93.9079 642.6180
-317.0880 88.0312 641.9990
-317.0880 89.1884 641.9990
-317.3940 90.4328 642.6180
-317.3940 91.5912 642.6180
-317.3940 92.7495 642.6180
-317.3940 93.9079 642.6180
-315.9310 89.1884 641.9990
-316.2350 90.4328 642.6180
-316.2350 91.5912 642.6180
-316.5400 92.8391 643.2380
-316.2350 93.9079 642.6180
-314.4700 87.9464 641.3810
-315.0770 89.2744 642.6180
-315.0770 90.4328 642.6180
-315.0770 91.5912 642.6180
-315.3810 92.8391 643.2380
-315.0770 93.9079 642.6180
-313.9180 89.2744 642.6180
-313.9180 90.4328 642.6180
-313.9180 91.5912 642.6180
-314.2210 92.8391 643.2380
-313.9180 93.9079 642.6180
-312.4590 91.5029 641.9990
-312.7600 92.7495 642.6180
-312.7600 93.9079 642.6180
-311.6020 91.5912 642.6180
-311.6020 92.7495 642.6180
-311.9020 93.9985 643.2380
-310.4430 91.5912 642.6180
-310.4430 92.7495 642.6180
-310.4430 93.9079 642.6180
-308.9870 91.5029 641.9990
-309.2850 92.7495 642.6180
-309.2850 93.9079 642.6180
-307.5330 91.4149 641.3810
-307.8300 92.6602 641.9990
-308.1270 93.9079 642.6180
-306.3770 92.5710 641.3810
-306.9680 93.9079 642.6180
-305.5150 93.8174 641.9990
-304.0650 91.4149 641.3810
-304.0650 92.5710 641.3810
-304.3580 93.8174 641.9990
-302.9090 91.4149 641.3810
-302.9090 92.5710 641.3810
-303.2010 93.8174 641.9990
-301.7530 90.2587 641.3810
-301.7530 91.4149 641.3810
-301.7530 92.5710 641.3810
-302.0430 93.8174 641.9990
-300.5970 90.2587 641.3810
-300.5970 91.4149 641.3810
-300.5970 92.5710 641.3810
-301.1760 93.9079 642.6180
-299.7290 90.3457 641.9990
-299.7290 91.5029 641.9990
-299.7290 92.6602 641.9990
-300.0180 93.9079 642.6180
-298.2840 79.8534 641.3810
-298.2840 82.1657 641.3810
-298.2840 83.3219 641.3810
-298.2840 84.4780 641.3810
-298.5720 85.7166 641.9990
-298.2840 86.7903 641.3810
-298.2840 87.9464 641.3810
-298.5720 89.1884 641.9990
-298.8600 90.4328 642.6180
-298.5720 91.5029 641.9990
-298.8600 92.7495 642.6180
-298.8600 93.9079 642.6180
-297.4140 79.9304 641.9990
-297.4140 81.0876 641.9990
-297.7010 82.3242 642.6180
-297.7010 83.4826 642.6180
-297.7010 84.6409 642.6180
-297.7010 85.7993 642.6180
-297.7010 86.9577 642.6180
-297.7010 88.1160 642.6180
-297.7010 89.2744 642.6180
-297.7010 90.4328 642.6180
-297.7010 91.5912 642.6180
-297.9890 92.8391 643.2380
-297.9890 93.9985 643.2380
-295.9720 78.6973 641.3810
-296.2570 79.9304 641.9990
-296.5430 81.1658 642.6180
-296.5430 82.3242 642.6180
-296.8290 83.5631 643.2380
-296.8290 84.7226 643.2380
-297.1160 85.9651 643.8590
-296.8290 87.0416 643.2380
-296.8290 88.2011 643.2380
-296.8290 89.3606 643.2380
-297.1160 90.6075 643.8590
-296.8290 91.6796 643.2380
-297.4030 93.0186 644.4820
-297.6910 94.2715 645.1060
-294.8160 77.5412 641.3810
-295.3850 78.8491 642.6180
-295.3850 80.0074 642.6180
-295.6700 81.2442 643.2380
-295.6700 82.4036 643.2380
-295.9550 83.6439 643.8590
-295.9550 84.8045 643.8590
-295.9550 85.9651 643.8590
-295.6700 87.0416 643.2380
-295.9550 88.2863 643.8590
-295.9550 89.4469 643.8590
-296.2410 90.6952 644.4820
-295.9550 91.7681 643.8590
-296.8160 93.1989 645.7310
-297.3920 94.5461 646.9850
-293.6600 77.5412 641.3810
-293.9430 78.7731 641.9990
-294.5100 80.0847 643.2380
-294.7950 81.3227 643.8590
-294.7950 82.4833 643.8590
-294.7950 83.6439 643.8590
-294.7950 84.8045 643.8590
-294.7950 85.9651 643.8590
-294.7950 87.1257 643.8590
-294.7950 88.2863 643.8590
-294.7950 89.4469 643.8590
-295.3650 90.7830 645.1060
-295.9380 92.1242 646.3570
-296.5140 93.4706 647.6140
-296.5140 94.6380 647.6140
-292.5040 77.5412 641.3810
-293.0680 78.8491 642.6180
-293.3510 80.0847 643.2380
-293.6340 81.3227 643.8590
-293.6340 82.4833 643.8590
-293.9180 83.7248 644.4820
-293.9180 84.8865 644.4820
-293.9180 86.0482 644.4820
-293.9180 87.2100 644.4820
-293.9180 88.3717 644.4820
-293.9180 89.5334 644.4820
-295.0590 91.0474 646.9850
-295.3460 92.3032 647.6140
-295.6340 93.5615 648.2440
-295.6340 94.7300 648.2440
-291.3480 77.5412 641.3810
-291.6280 78.7731 641.9990
-292.1910 80.0847 643.2380
-292.4730 81.3227 643.8590
-292.4730 82.4833 643.8590
-292.7560 83.7248 644.4820
-292.4730 84.8045 643.8590
-292.7560 86.0482 644.4820
-292.7560 87.2100 644.4820
-294.4650 88.8875 648.2440
-293.6080 89.7940 646.3570
-294.1790 91.1359 647.6140
-294.4650 92.3930 648.2440
-294.7520 93.6526 648.8750
-294.7520 94.8223 648.8750
-290.4710 79.9304 641.9990
-291.3130 81.3227 643.8590
-291.3130 82.4833 643.8590
-291.3130 83.6439 643.8590
-291.3130 84.8045 643.8590
-292.7270 89.8811 646.9850
-293.0120 91.1359 647.6140
-293.5820 92.4830 648.8750
-293.5820 93.6526 648.8750
-293.5820 94.8223 648.8750
-289.3140 79.9304 641.9990
-290.1520 81.3227 643.8590
-290.1520 82.4833 643.8590
-290.1520 83.6439 643.8590
-289.5930 89.2744 642.6180
-291.8440 91.1359 647.6140
-292.4120 92.4830 648.8750
-292.4120 93.6526 648.8750
-292.4120 94.8223 648.8750
-288.1560 90.3457 641.9990
-288.7130 91.6796 643.2380
-290.9590 93.5615 648.2440
-290.9590 94.7300 648.2440
-287.2760 91.5912 642.6180
-289.5090 93.4706 647.6140
-289.5090 94.6380 647.6140
-288.0620 93.3799 646.9850
-288.6220 94.7300 648.2440
-284.4110 91.4149 641.3810
-285.2340 92.8391 643.2380
-286.3400 94.3629 645.7310
-283.2550 91.4149 641.3810
-284.0750 92.8391 643.2380
-284.3490 94.0894 643.8590
-282.9150 92.8391 643.2380
-282.9150 93.9985 643.2380
-281.4840 92.7495 642.6180
-281.7560 93.9985 643.2380
-279.7860 90.2587 641.3810
-280.3260 91.5912 642.6180
-280.3260 92.7495 642.6180
-280.5960 93.9985 643.2380
-278.6300 91.4149 641.3810
-278.8980 92.6602 641.9990
-279.1670 93.9079 642.6180
-277.4740 91.4149 641.3810
-277.7410 92.6602 641.9990
-278.0090 93.9079 642.6180
-276.3180 91.4149 641.3810
-276.5840 92.6602 641.9990
-276.8510 93.9079 642.6180
-275.1620 91.4149 641.3810
-275.1620 92.5710 641.3810
-275.6920 93.9079 642.6180
-274.2690 93.8174 641.9990
-272.8490 91.4149 641.3810
-272.8490 92.5710 641.3810
-273.3750 93.9079 642.6180
-271.6930 90.2587 641.3810
-271.9550 91.5029 641.9990
-271.6930 92.5710 641.3810
-272.2170 93.9079 642.6180
-270.5370 91.4149 641.3810
-270.7980 92.6602 641.9990
-271.0590 93.9079 642.6180
-269.9000 90.4328 642.6180
-269.9000 91.5912 642.6180
-269.9000 92.7495 642.6180
-270.1610 93.9985 643.2380
-268.7420 90.4328 642.6180
-269.0010 91.6796 643.2380
-269.0010 92.8391 643.2380
-269.0010 93.9985 643.2380
-267.5840 90.4328 642.6180
-267.5840 91.5912 642.6180
-267.8420 92.8391 643.2380
-267.8420 93.9985 643.2380
-265.9120 89.1026 641.3810
-266.6820 90.5201 643.2380
-266.6820 91.6796 643.2380
-266.9400 92.9288 643.8590
-266.9400 94.0894 643.8590
-265.2670 89.2744 642.6180
-265.5230 90.5201 643.2380
-265.7790 91.7681 643.8590
-266.0360 93.0186 644.4820
-266.0360 94.1804 644.4820
-263.8540 89.1884 641.9990
-264.3630 90.5201 643.2380
-264.6190 91.7681 643.8590
-265.1310 93.1087 645.1060
-264.8750 94.1804 644.4820
-262.9500 89.2744 642.6180
-263.2040 90.5201 643.2380
-263.4580 91.7681 643.8590
-263.9680 93.1087 645.1060
-263.9680 94.2715 645.1060
-261.2880 79.8534 641.3810
-261.2880 85.6341 641.3810
-261.5400 86.8739 641.9990
-262.0440 88.2011 643.2380
-262.2980 89.4469 643.8590
-262.5510 90.6952 644.4820
-262.8050 91.9458 645.1060
-263.3150 93.2893 646.3570
-263.3150 94.4544 646.3570
-260.1320 79.8534 641.3810
-260.3820 83.4021 641.9990
-260.1320 84.4780 641.3810
-260.1320 85.6341 641.3810
-260.6330 86.9577 642.6180
-260.8850 88.2011 643.2380
-261.6430 89.6201 645.1060
-262.1500 90.9591 646.3570
-262.4050 92.2136 646.9850
-262.6600 93.4706 647.6140
-262.6600 94.6380 647.6140
-258.9760 79.8534 641.3810
-259.2250 81.0876 641.9990
-259.4750 82.3242 642.6180
-259.9760 83.6439 643.8590
-259.7250 84.7226 643.2380
-259.9760 85.9651 643.8590
-259.9760 87.1257 643.8590
-260.7320 88.5430 645.7310
-261.2380 89.8811 646.9850
-261.4920 91.1359 647.6140
-261.7470 92.3930 648.2440
-261.7470 93.5615 648.2440
-261.7470 94.7300 648.2440
-258.3170 81.1658 642.6180
-258.5660 82.4036 643.2380
-258.8160 83.6439 643.8590
-258.8160 84.8045 643.8590
-258.8160 85.9651 643.8590
-259.3170 87.2944 645.1060
-260.0720 88.7149 646.9850
-260.3250 89.9685 647.6140
-260.3250 91.1359 647.6140
-260.5780 92.3930 648.2440
-260.5780 93.5615 648.2440
-260.5780 94.7300 648.2440
-257.6550 83.6439 643.8590
-257.6550 84.8045 643.8590
-257.6550 85.9651 643.8590
-258.1540 87.2944 645.1060
-258.6550 88.6288 646.3570
-259.1580 89.9685 647.6140
-259.1580 91.1359 647.6140
-259.4100 92.3930 648.2440
-259.4100 93.5615 648.2440
-259.4100 94.7300 648.2440
-256.2470 83.5631 643.2380
-256.2470 84.7226 643.2380
-256.2470 85.8821 643.2380
-256.4950 87.1257 643.8590
-256.9910 88.4573 645.1060
-257.2400 89.7069 645.7310
-257.9900 91.1359 647.6140
-258.2410 92.3930 648.2440
-258.2410 93.5615 648.2440
-258.4930 94.8223 648.8750
-255.0880 87.0416 643.2380
-255.3340 88.2863 643.8590
-255.3340 89.4469 643.8590
-256.0760 90.8709 645.7310
-257.0730 92.3930 648.2440
-257.3230 93.6526 648.8750
-257.3230 94.8223 648.8750
-253.4390 86.8739 641.9990
-253.4390 88.0312 641.9990
-253.4390 89.1884 641.9990
-253.6830 90.4328 642.6180
-255.4070 92.2136 646.9850
-255.9040 93.5615 648.2440
-255.9040 94.7300 648.2440
-252.0390 90.2587 641.3810
-252.7690 91.6796 643.2380
-253.2570 93.0186 644.4820
-252.7690 93.9985 643.2380
-251.3660 91.5912 642.6180
-251.6090 92.8391 643.2380
-251.3660 93.9079 642.6180
-250.2080 91.5912 642.6180
-250.2080 92.7495 642.6180
-250.2080 93.9079 642.6180
-248.8100 91.5029 641.9990
-249.0500 92.7495 642.6180
-249.0500 93.9079 642.6180
-247.6530 91.5029 641.9990
-248.1310 92.8391 643.2380
-248.1310 93.9985 643.2380
-246.4950 91.5029 641.9990
-246.7330 92.7495 642.6180
-246.7330 93.9079 642.6180
-245.1020 91.4149 641.3810
-245.3380 92.6602 641.9990
-245.5750 93.9079 642.6180
-243.9460 91.4149 641.3810
-244.4160 92.7495 642.6180
-244.4160 93.9079 642.6180
-243.2580 91.5912 642.6180
-243.2580 92.7495 642.6180
-243.4930 93.9985 643.2380
-242.0990 91.5912 642.6180
-242.0990 92.7495 642.6180
-242.3330 93.9985 643.2380
-240.4770 90.2587 641.3810
-240.9410 91.5912 642.6180
-240.9410 92.7495 642.6180
-241.1740 93.9985 643.2380
-239.5520 90.3457 641.9990
-239.7830 91.5912 642.6180
-239.5520 92.6602 641.9990
-239.5520 93.8174 641.9990
-238.1650 89.1026 641.3810
-238.3940 90.3457 641.9990
-238.6240 91.5912 642.6180
-238.3940 92.6602 641.9990
-238.6240 93.9079 642.6180
-237.4660 89.2744 642.6180
-237.6950 90.5201 643.2380
-237.6950 91.6796 643.2380
-237.6950 92.8391 643.2380
-237.6950 93.9985 643.2380
-235.8530 87.9464 641.3810
-236.3080 89.2744 642.6180
-236.5360 90.5201 643.2380
-236.5360 91.6796 643.2380
-236.5360 92.8391 643.2380
-236.5360 93.9985 643.2380
-235.1490 88.1160 642.6180
-235.3760 89.3606 643.2380
-235.3760 90.5201 643.2380
-235.3760 91.6796 643.2380
-235.1490 92.7495 642.6180
-235.1490 93.9079 642.6180
-234.2170 89.3606 643.2380
-234.4430 90.6075 643.8590
-234.4430 91.7681 643.8590
-234.2170 92.8391 643.2380
-234.2170 93.9985 643.2380
-232.8330 88.1160 642.6180
-233.0570 89.3606 643.2380
-233.2820 90.6075 643.8590
-233.2820 91.7681 643.8590
-233.0570 92.8391 643.2380
-233.0570 93.9985 643.2380
-231.8980 88.2011 643.2380
-231.8980 89.3606 643.2380
-232.1220 90.6075 643.8590
-231.8980 91.6796 643.2380
-231.8980 92.8391 643.2380
-231.8980 93.9985 643.2380
-230.0720 86.7903 641.3810
-230.5160 88.1160 642.6180
-230.7380 89.3606 643.2380
-230.7380 90.5201 643.2380
-230.7380 91.6796 643.2380
-230.7380 92.8391 643.2380
-230.7380 93.9985 643.2380
-229.1360 85.7166 641.9990
-229.5790 87.0416 643.2380
-229.8010 88.2863 643.8590
-229.8010 89.4469 643.8590
-229.8010 90.6075 643.8590
-229.5790 91.6796 643.2380
-229.5790 92.8391 643.2380
-229.5790 93.9985 643.2380
-228.4190 85.8821 643.2380
-228.4190 87.0416 643.2380
-228.6400 88.2863 643.8590
-228.4190 89.3606 643.2380
-228.6400 90.6075 643.8590
-228.4190 91.6796 643.2380
-228.4190 92.8391 643.2380
-228.4190 93.9985 643.2380
-227.2600 85.8821 643.2380
-227.4790 87.1257 643.8590
-227.4790 88.2863 643.8590
-227.4790 89.4469 643.8590
-227.4790 90.6075 643.8590
-227.4790 91.7681 643.8590
-227.4790 92.9288 643.8590
-227.4790 94.0894 643.8590
-225.8820 84.6409 642.6180
-226.3190 85.9651 643.8590
-226.5380 87.2100 644.4820
-226.5380 88.3717 644.4820
-226.5380 89.5334 644.4820
-226.7570 90.7830 645.1060
-226.5380 91.8569 644.4820
-226.7570 93.1087 645.1060
-226.7570 94.2715 645.1060
-224.5070 81.0876 641.9990
-224.7240 82.3242 642.6180
-224.7240 83.4826 642.6180
-225.1580 84.8045 643.8590
-225.3760 86.0482 644.4820
-225.3760 87.2100 644.4820
-225.3760 88.3717 644.4820
-225.3760 89.5334 644.4820
-225.5940 90.7830 645.1060
-225.3760 91.8569 644.4820
-225.5940 93.1087 645.1060
-226.0320 94.4544 646.3570
-223.1350 79.8534 641.3810
-223.7810 81.2442 643.2380
-223.7810 82.4036 643.2380
-223.7810 83.5631 643.2380
-223.9980 84.8045 643.8590
-224.2140 86.0482 644.4820
-224.4310 87.2944 645.1060
-224.4310 88.4573 645.1060
-224.4310 89.6201 645.1060
-224.8670 90.9591 646.3570
-224.4310 91.9458 645.1060
-225.0850 93.3799 646.9850
-225.5230 94.7300 648.2440
-222.1930 79.9304 641.9990
-222.8370 81.3227 643.8590
-222.8370 82.4833 643.8590
-222.8370 83.6439 643.8590
-222.8370 84.8045 643.8590
-223.0520 86.0482 644.4820
-223.4850 87.3790 645.7310
-223.4850 88.5430 645.7310
-223.4850 89.7069 645.7310
-224.1360 91.1359 647.6140
-224.1360 92.3032 647.6140
-224.7920 93.7439 649.5070
-220.8230 78.6973 641.3810
-221.0360 79.9304 641.9990
-221.4620 81.2442 643.2380
-221.6760 82.4833 643.8590
-221.6760 83.6439 643.8590
-221.8910 84.8865 644.4820
-221.8910 86.0482 644.4820
-222.3210 87.3790 645.7310
-222.3210 88.5430 645.7310
-222.7520 89.8811 646.9850
-222.9690 91.1359 647.6140
-223.1860 92.3930 648.2440
-224.2770 94.0188 651.4120
-219.6670 78.6973 641.3810
-219.6670 79.8534 641.3810
-220.5160 81.3227 643.8590
-220.5160 82.4833 643.8590
-220.7290 83.7248 644.4820
-220.7290 84.8865 644.4820
-220.7290 86.0482 644.4820
-220.9430 87.2944 645.1060
-221.1570 88.5430 645.7310
-221.3710 89.7940 646.3570
-221.8020 91.1359 647.6140
-222.2330 92.4830 648.8750
-223.1020 94.0188 651.4120
-219.3550 81.3227 643.8590
-219.3550 82.4833 643.8590
-219.3550 83.6439 643.8590
-219.3550 84.8045 643.8590
-219.5670 86.0482 644.4820
-220.2060 87.4637 646.3570
-220.4200 88.7149 646.9850
-220.6340 89.9685 647.6140
-220.8490 91.2245 648.2440
-221.0640 92.4830 648.8750
-221.9280 94.0188 651.4120
-217.9840 81.2442 643.2380
-217.9840 82.4036 643.2380
-217.9840 83.5631 643.2380
-218.1950 84.8045 643.8590
-218.1950 85.9651 643.8590
-218.4060 87.2100 644.4820
-218.8290 88.5430 645.7310
-219.2540 89.8811 646.9850
-219.4670 91.1359 647.6140
-219.4670 92.3032 647.6140
-219.8940 93.6526 648.8750
-216.4070 84.5594 641.9990
-216.8240 85.8821 643.2380
-217.2440 87.2100 644.4820
-217.8760 88.6288 646.3570
-218.0870 89.8811 646.9850
-218.2990 91.1359 647.6140
-218.2990 92.3032 647.6140
-218.5120 93.5615 648.2440
-218.7250 94.8223 648.8750
-215.0420 84.4780 641.3810
-215.4570 85.7993 642.6180
-215.8730 87.1257 643.8590
-216.2910 88.4573 645.1060
-216.9210 89.8811 646.9850
-216.9210 91.0474 646.9850
-217.1320 92.3032 647.6140
-217.1320 93.4706 647.6140
-217.3430 94.7300 648.2440
-214.2990 85.7993 642.6180
-214.7130 87.1257 643.8590
-215.3370 88.5430 645.7310
-215.7550 89.8811 646.9850
-215.7550 91.0474 646.9850
-215.5460 92.1242 646.3570
-215.7550 93.3799 646.9850
-216.1750 94.7300 648.2440
-213.1400 86.9577 642.6180
-213.1400 88.1160 642.6180
-213.3460 89.3606 643.2380
-213.5520 90.6075 643.8590
-213.5520 91.7681 643.8590
-213.7590 93.0186 644.4820
-213.9660 94.2715 645.1060
-211.9820 86.9577 642.6180
-211.9820 88.1160 642.6180
-211.9820 89.2744 642.6180
-212.3910 90.6075 643.8590
-212.3910 91.7681 643.8590
-212.5970 93.0186 644.4820
-212.5970 94.1804 644.4820
-210.4180 86.7903 641.3810
-210.6200 88.0312 641.9990
-210.8230 89.2744 642.6180
-211.0270 90.5201 643.2380
-211.2310 91.7681 643.8590
-211.4350 93.0186 644.4820
-211.6400 94.2715 645.1060
-209.2620 86.7903 641.3810
-209.2620 87.9464 641.3810
-209.4630 89.1884 641.9990
-209.8670 90.5201 643.2380
-210.0700 91.7681 643.8590
-210.0700 92.9288 643.8590
-210.4770 94.2715 645.1060
-208.3060 86.8739 641.9990
-208.1050 87.9464 641.3810
-208.3060 89.1884 641.9990
-208.5070 90.4328 642.6180
-208.9100 91.7681 643.8590
-209.1120 93.0186 644.4820
-209.1120 94.1804 644.4820
-206.9490 85.6341 641.3810
-207.1490 86.8739 641.9990
-207.1490 88.0312 641.9990
-207.3480 89.2744 642.6180
-207.5480 90.5201 643.2380
-207.7490 91.7681 643.8590
-207.9500 93.0186 644.4820
-207.9500 94.1804 644.4820
-205.7930 89.1026 641.3810
-206.1900 90.4328 642.6180
-206.3890 91.6796 643.2380
-206.5880 92.9288 643.8590
-206.7880 94.1804 644.4820
-205.0320 86.9577 642.6180
-205.0320 88.1160 642.6180
-205.0320 89.2744 642.6180
-205.2300 90.5201 643.2380
-205.4280 91.7681 643.8590
-205.4280 92.9288 643.8590
-205.8260 94.2715 645.1060
